<?xml version="1.0" encoding="UTF-8"?>
<svg width="512px" height="512px" viewBox="0 0 512 512" version="1.1" xmlns="http://www.w3.org/2000/svg" xmlns:xlink="http://www.w3.org/1999/xlink">
    <g>
        <circle stroke="null" fill="#ffffff" r="256" cy="256" cx="256"/>
        <path fill="#00a1e1"
              d="m226.60096,2.0904c-10.2,1.1 -22.3,3.3 -34.8,6.5c-71,18.1 -132.5,67.6 -165,132.9c-11.3,22.7 -18.4,43.8 -23.1,69c-4.9,25.6 -4.9,64.3 0,90.5c6.5,35.4 18.2,64.4 37.9,94.5c20.3,30.9 47,56.9 79.5,77.5c18.2,11.5 50.8,25.3 72,30.4c24.9,6 47.9,8.2 74,7.2c19.9,-0.8 32.5,-2.5 49.5,-6.6c22.7,-5.4 53.7,-18 70.5,-28.5c22.9,-14.4 37.5,-26 54.6,-43.7c18.5,-19.2 31.3,-37.1 43.3,-60.7c13.1,-25.8 20.7,-49.8 25.2,-80c1.8,-12.6 2,-17.5 1.6,-40c-0.4,-25.4 -1.1,-31.5 -5.3,-51.1c-6.8,-31.1 -20.4,-62.2 -39.3,-89.5c-41.5,-60.3 -112.2,-102 -183.6,-108.5c-12.1,-1.1 -46,-1.1 -57,0.1zm58,23.4c29.2,4 52.7,11.2 77,23.5c56,28.5 97.5,76.7 117.3,136.5c16.3,49.1 14.6,108.2 -4.5,156c-12.2,30.6 -27.5,54.4 -49.8,77.3c-21,21.7 -39.7,35.3 -66,48.2c-8.8,4.3 -17.1,8.1 -18.5,8.5c-1.4,0.3 -3.4,1 -4.5,1.5c-23.6,9.8 -63.3,15.3 -95.3,13.1c-22.8,-1.6 -49.7,-7.1 -63.7,-13.1c-1.1,-0.5 -3.1,-1.2 -4.5,-1.5c-5.7,-1.6 -35.2,-16.8 -44.5,-23c-46.2,-30.9 -79.6,-75.4 -95.4,-127c-7,-23.1 -9.6,-41.3 -9.6,-68c0,-26.3 1.7,-39.6 8.1,-63.2c15.4,-56.3 54.4,-107.1 105.6,-137.5c28.2,-16.6 56.2,-26.4 89.8,-31.2c13.4,-1.9 44.9,-2 58.5,-0.1z"/>
        <path fill="#00a1e1"
              d="m148.49515,93.26738c-27.1,18.4 -49.9,44.6 -63.7,72.9c-4.6,9.4 -7.8,16.7 -7.8,17.5c0,0.4 -0.6,2.1 -1.4,3.8c-6.1,14 -10.7,40.3 -10.9,62.7c-0.1,16.4 2.4,42.3 4.4,44.4c0.5,0.6 0.9,2 0.9,3.2c0,2.7 6.3,21.9 9.7,29.4c13.4,29.7 29.2,51.1 53,71.6c13.5,11.7 38.5,27.3 41.7,26.1c0.7,-0.3 1.6,-1.8 1.8,-3.4c0.6,-3.1 7,-27.6 8.8,-33.3c0.6,-1.9 1.5,-5.3 2,-7.5c0.5,-2.2 1.5,-6.6 2.3,-9.8l1.5,-5.8l-4.2,-2.6c-14,-8.8 -18.5,-12.2 -25.5,-18.8c-17.5,-16.7 -29.8,-39.7 -34.4,-64c-1.4,-7.5 -1.4,-37 0.1,-45c1.8,-10.3 6.4,-24.1 10.2,-31c1,-1.7 2.9,-5 4.3,-7.5c2.3,-4.2 6.7,-6.8 6.7,-4c0,0.6 1.8,3.5 4,6.5c2.2,3 4,5.7 4,6c0,0.3 1.3,2.3 2.9,4.3c1.6,2 3.8,5.1 4.8,6.9c1,1.7 4.9,7.8 8.7,13.5c3.8,5.7 9,13.4 11.5,17.3c2.5,3.8 5,7.4 5.4,8c0.5,0.5 9.8,14.6 20.8,31.2l20,30.3l25.4,0l25.3,0l19.4,-29.3c10.7,-16 27.5,-41.3 37.4,-56.1c9.8,-14.7 18.7,-28.2 19.7,-30c1.1,-1.7 2.7,-4 3.8,-5.2c1,-1.1 1.9,-2.6 1.9,-3.3c0,-0.7 0.9,-1.1 2.1,-0.9c4.7,0.7 15.4,24.8 19.1,42.9c1.6,8.4 2.2,34.5 0.8,41.4c-3.2,15.8 -7.7,29.5 -12.5,38c-9.2,16.6 -23.4,32.5 -37.3,42c-5.9,4 -7.2,5.3 -6.8,7c0.3,1.1 1.1,4.7 1.9,8c0.8,3.3 2.5,9.6 3.7,14c1.2,4.4 2.4,9.1 2.7,10.5c1.6,7.7 6.6,25.6 7.3,26.4c2.3,2.4 31.7,-18.3 45.6,-32.1c28.1,-27.9 45.6,-59.7 54.3,-98.8c4.6,-20.5 4.5,-55.5 0,-77c-2,-9.1 -4.7,-19.2 -6,-21.7c-0.5,-1 -0.9,-2.2 -0.9,-2.8c0,-1.2 -7.6,-19.4 -10.3,-24.5c-9.1,-17.6 -21.8,-34.9 -35.6,-48.5c-10,-10 -27.6,-24.2 -34.1,-27.5l-3,-1.6l-7.9,12.3c-13.9,21.5 -22.6,35 -30.2,46.8c-4.1,6.3 -8.8,13.6 -10.4,16.2c-1.7,2.6 -6.7,10.4 -11.2,17.3c-4.6,7 -8.3,12.8 -8.3,13.1c0,0.2 -4.5,7.2 -10,15.4c-5.5,8.3 -10,15.3 -10,15.6c0,1.4 -9.4,14.3 -10.2,13.8c-1,-0.6 -12.8,-18 -12.8,-18.9c0,-0.3 -3.6,-5.9 -8,-12.6c-4.4,-6.6 -8,-12.2 -8,-12.4c0,-0.2 -3.1,-5.3 -7,-11.2c-3.8,-5.9 -9.5,-14.9 -12.6,-19.8c-12,-19 -15.4,-24.4 -24.1,-38c-4.9,-7.7 -12.2,-19.3 -16.3,-25.7c-4.1,-6.5 -8,-11.8 -8.6,-11.8c-0.5,0 -5,2.7 -9.9,6.1z"/>
    </g>
</svg>
